<?xml version="1.0" encoding="UTF-8"?>
<svg id="Layer_1" data-name="Layer 1" xmlns="http://www.w3.org/2000/svg" viewBox="0 0 551.97 125.77">
  <defs>
    <style>
      .cls-1 {
        fill: #200073;
      }
    </style>
  </defs>
  <path class="cls-1" d="m166.43,78.54c0-21.15-15.74-37.71-38.2-37.71-23.44-.49-42.96,19.02-42.47,42.47-.49,23.45,19.35,42.96,44.44,42.47,11.97,0,22.79-4.1,32.46-12.13l-9.18-15.09c-7.05,5.41-14.59,8.2-22.63,8.2-11.8,0-20.17-5.74-22.79-16.07h56.9c.98-4.09,1.47-8.19,1.47-12.13Zm-58.37-3.45c2.46-10,10.01-16.39,19.35-16.39s17.38,6.39,17.55,16.39h-36.9Z"/>
  <path class="cls-1" d="m279.11,42.63v81.16h22.14V42.63h-22.14Z"/>
  <g>
    <path class="cls-1" d="m238.93,22.13v28.37c-5.9-6.4-13.94-9.67-24.27-9.67-22.63,0-39.35,18.04-39.35,42.47s16.72,42.47,39.35,42.47c11.16,0,20.67-4.26,26.07-11.97v10h20.33V22.13h-22.14Zm-20.17,83.46c-11.97,0-20.99-8.85-20.99-22.46s9.18-22.3,20.99-22.3c11.15,0,20.5,8.03,20.5,22.46s-9.35,22.3-20.5,22.3Z"/>
    <rect class="cls-1" x="261.07" width="22.14" height="22.14"/>
  </g>
  <polygon class="cls-1" points="96.74 22.13 38.93 123.79 14.33 123.79 36.07 85.56 30.37 75.54 0 22.13 24.59 22.13 45.77 60.14 45.78 60.14 48.53 65.09 51.16 60.33 72.31 22.13 96.74 22.13"/>
  <path class="cls-1" d="m369.46,122c-5.04,2.2-10.33,3.66-15.89,3.67-5.72.01-10.67-1.5-14.82-3.55-9.3-4.59-14.43-13.55-14.43-26.86v-33.94h-12.79v-18.69h12.79v-20.5h22.13v20.5h22.96v18.69h-22.96v31.97c0,8.4,3.85,13.27,12.51,12.54,1.49-.13,2.94-.47,4.36-.98l6.13,17.14Z"/>
  <polygon class="cls-1" points="551.97 123.8 526.72 123.8 494.09 78.87 494.09 123.8 471.95 123.8 471.95 22.14 494.09 22.14 494.09 77.23 523.27 42.64 549.51 42.64 519.01 78.54 551.97 123.8"/>
  <path class="cls-1" d="m458.5,78.54c0-21.15-15.74-37.71-38.2-37.71-23.44-.49-42.96,19.02-42.47,42.47-.41,19.62,13.41,36.47,32.64,41.17,3.75.92,7.7,1.38,11.8,1.29,11.97,0,22.79-4.1,32.46-12.13l-9.18-15.09c-7.05,5.41-14.59,8.2-22.63,8.2-4.77,0-8.96-.96-12.45-2.75-5.16-2.65-8.77-7.16-10.34-13.32h56.89c.99-4.09,1.48-8.19,1.48-12.13Zm-58.37-3.45c2.46-10,10.01-16.39,19.35-16.39s17.38,6.39,17.55,16.39h-36.9Z"/>
</svg>